<svg xmlns="http://www.w3.org/2000/svg" xmlns:xlink="http://www.w3.org/1999/xlink" xmlns:serif="http://www.serif.com/" viewBox="0 0 32 40" fill="#4a4b53" version="1.1" width="25px" height="25px"  xml:space="preserve" style="" x="0px" y="0px" fill-rule="evenodd" clip-rule="evenodd" stroke-linejoin="round" stroke-miterlimit="1.41421"><rect serif:id="trash can delete remove" x="0" y="0" width="32" height="32" style="" fill="none"/><path d="M24.074,11c0.503,0.059 0.901,0.484 0.921,0.996l0,13.997c-0.01,1.554 -1.344,2.965 -2.96,2.996c-4.012,0.025 -8.025,0 -12.037,0c-1.568,-0.01 -2.985,-1.349 -2.995,-2.996l0,-13.997c0.01,-0.256 0.043,-0.326 0.109,-0.454c0.28,-0.55 1.131,-0.718 1.597,-0.253c0.185,0.185 0.282,0.443 0.293,0.707c0,4.669 -0.03,9.338 0,14.007c0.01,0.516 0.464,0.977 0.986,0.987c4.007,0.025 8.014,0.025 12.021,0c0.521,-0.01 0.983,-0.457 0.987,-1.003l0,-13.991c0.019,-0.481 0.373,-0.913 0.843,-0.987c0.149,-0.024 0.186,-0.011 0.235,-0.009Zm-6.04,1.997c0.182,0.016 0.231,0.035 0.327,0.075c0.327,0.136 0.57,0.456 0.61,0.811c0.006,0.05 0.005,0.062 0.007,0.112l0,7.997c-0.022,0.763 -1.037,1.307 -1.666,0.745c-0.182,-0.162 -0.3,-0.392 -0.327,-0.633c-0.006,-0.05 -0.005,-0.062 -0.007,-0.112l0,-7.997c0.006,-0.182 0.023,-0.233 0.057,-0.33c0.123,-0.352 0.456,-0.621 0.831,-0.663c0.108,-0.012 0.133,-0.006 0.168,-0.005Zm-3.958,0c0.181,0.016 0.231,0.035 0.326,0.075c0.328,0.136 0.571,0.456 0.611,0.811c0.005,0.05 0.005,0.062 0.006,0.112l0,7.997c-0.021,0.755 -1.044,1.301 -1.666,0.745c-0.181,-0.162 -0.3,-0.392 -0.327,-0.633c-0.005,-0.05 -0.005,-0.062 -0.006,-0.112l0,-7.997c0.005,-0.182 0.022,-0.233 0.056,-0.33c0.123,-0.352 0.456,-0.621 0.832,-0.663c0.108,-0.012 0.133,-0.006 0.168,-0.005Zm-3.075,-5.999l0,-2.998c0.005,-0.183 0.022,-0.233 0.056,-0.331c0.123,-0.352 0.456,-0.62 0.832,-0.663c0.049,-0.005 0.062,-0.005 0.111,-0.006l7.997,0c0.019,0.001 0.037,0.001 0.056,0.002c0.182,0.015 0.232,0.035 0.327,0.074c0.328,0.136 0.57,0.456 0.61,0.812c0.006,0.049 0.005,0.062 0.007,0.112l0,2.998l4.997,0l0.088,0.004c0.282,0.037 0.355,0.085 0.486,0.177c0.47,0.329 0.56,1.099 0.133,1.526c-0.144,0.144 -0.332,0.242 -0.533,0.277c-0.076,0.014 -0.096,0.012 -0.174,0.015l-19.991,0c-0.284,-0.012 -0.361,-0.054 -0.5,-0.133c-0.522,-0.302 -0.656,-1.123 -0.207,-1.573c0.145,-0.144 0.332,-0.242 0.533,-0.278c0.077,-0.013 0.097,-0.011 0.174,-0.015l4.998,0Zm7.996,0l0,-1.999l-5.997,0l0,1.999l5.997,0Z" style="" fill-rule="nonzero"/></svg>